<mxfile host="app.diagrams.net" modified="2024-04-25T12:05:45.890Z" agent="Mozilla/5.0 (Windows NT 10.0; Win64; x64) AppleWebKit/537.36 (KHTML, like Gecko) Chrome/124.0.0.0 Safari/537.36" etag="13mULLwAweufsJRvVy3G" version="24.3.0" type="gitlab">
  <diagram id="R2lEEEUBdFMjLlhIrx00" name="Page-1">
    <mxGraphModel dx="1615" dy="857" grid="1" gridSize="10" guides="1" tooltips="1" connect="1" arrows="1" fold="1" page="1" pageScale="1" pageWidth="850" pageHeight="1100" math="0" shadow="0" extFonts="Permanent Marker^https://fonts.googleapis.com/css?family=Permanent+Marker">
      <root>
        <mxCell id="0" />
        <mxCell id="1" parent="0" />
        <mxCell id="gf_K7DOhobYMyROf4His-146" value="" style="edgeStyle=orthogonalEdgeStyle;rounded=0;orthogonalLoop=1;jettySize=auto;html=1;" edge="1" parent="1" source="C-vyLk0tnHw3VtMMgP7b-2" target="gf_K7DOhobYMyROf4His-145">
          <mxGeometry relative="1" as="geometry">
            <Array as="points">
              <mxPoint x="750" y="240" />
              <mxPoint x="750" y="70" />
            </Array>
          </mxGeometry>
        </mxCell>
        <mxCell id="gf_K7DOhobYMyROf4His-218" value="" style="edgeStyle=orthogonalEdgeStyle;rounded=0;orthogonalLoop=1;jettySize=auto;html=1;endArrow=ERone;endFill=0;startArrow=ERone;startFill=0;" edge="1" parent="1" source="C-vyLk0tnHw3VtMMgP7b-2" target="gf_K7DOhobYMyROf4His-183">
          <mxGeometry relative="1" as="geometry" />
        </mxCell>
        <mxCell id="gf_K7DOhobYMyROf4His-255" value="" style="edgeStyle=orthogonalEdgeStyle;rounded=0;orthogonalLoop=1;jettySize=auto;html=1;" edge="1" parent="1" source="C-vyLk0tnHw3VtMMgP7b-2" target="gf_K7DOhobYMyROf4His-220">
          <mxGeometry relative="1" as="geometry" />
        </mxCell>
        <mxCell id="gf_K7DOhobYMyROf4His-372" value="" style="edgeStyle=orthogonalEdgeStyle;rounded=0;orthogonalLoop=1;jettySize=auto;html=1;" edge="1" parent="1" source="C-vyLk0tnHw3VtMMgP7b-2" target="gf_K7DOhobYMyROf4His-337">
          <mxGeometry relative="1" as="geometry">
            <Array as="points">
              <mxPoint x="557" y="630" />
            </Array>
          </mxGeometry>
        </mxCell>
        <mxCell id="C-vyLk0tnHw3VtMMgP7b-2" value="Users" style="shape=table;startSize=30;container=1;collapsible=1;childLayout=tableLayout;fixedRows=1;rowLines=0;fontStyle=1;align=center;resizeLast=1;swimlaneFillColor=none;rounded=1;shadow=0;fillColor=#dae8fc;strokeColor=#6c8ebf;" parent="1" vertex="1">
          <mxGeometry x="425" y="60" width="265" height="360" as="geometry">
            <mxRectangle x="425" y="60" width="70" height="30" as="alternateBounds" />
          </mxGeometry>
        </mxCell>
        <mxCell id="C-vyLk0tnHw3VtMMgP7b-3" value="" style="shape=partialRectangle;collapsible=0;dropTarget=0;pointerEvents=0;fillColor=none;points=[[0,0.5],[1,0.5]];portConstraint=eastwest;top=0;left=0;right=0;bottom=1;" parent="C-vyLk0tnHw3VtMMgP7b-2" vertex="1">
          <mxGeometry y="30" width="265" height="30" as="geometry" />
        </mxCell>
        <mxCell id="C-vyLk0tnHw3VtMMgP7b-4" value="PK" style="shape=partialRectangle;overflow=hidden;connectable=0;fillColor=none;top=0;left=0;bottom=0;right=0;fontStyle=1;" parent="C-vyLk0tnHw3VtMMgP7b-3" vertex="1">
          <mxGeometry width="40" height="30" as="geometry">
            <mxRectangle width="40" height="30" as="alternateBounds" />
          </mxGeometry>
        </mxCell>
        <mxCell id="C-vyLk0tnHw3VtMMgP7b-5" value="user_idÂ int NOT NULL " style="shape=partialRectangle;overflow=hidden;connectable=0;fillColor=#dae8fc;top=0;left=0;bottom=0;right=0;align=left;spacingLeft=6;fontStyle=5;strokeColor=#6c8ebf;" parent="C-vyLk0tnHw3VtMMgP7b-3" vertex="1">
          <mxGeometry x="40" width="225" height="30" as="geometry">
            <mxRectangle width="225" height="30" as="alternateBounds" />
          </mxGeometry>
        </mxCell>
        <mxCell id="C-vyLk0tnHw3VtMMgP7b-6" value="" style="shape=partialRectangle;collapsible=0;dropTarget=0;pointerEvents=0;fillColor=none;points=[[0,0.5],[1,0.5]];portConstraint=eastwest;top=0;left=0;right=0;bottom=0;" parent="C-vyLk0tnHw3VtMMgP7b-2" vertex="1">
          <mxGeometry y="60" width="265" height="30" as="geometry" />
        </mxCell>
        <mxCell id="C-vyLk0tnHw3VtMMgP7b-7" value="Fields" style="shape=partialRectangle;overflow=hidden;connectable=0;fillColor=none;top=0;left=0;bottom=0;right=0;" parent="C-vyLk0tnHw3VtMMgP7b-6" vertex="1">
          <mxGeometry width="40" height="30" as="geometry">
            <mxRectangle width="40" height="30" as="alternateBounds" />
          </mxGeometry>
        </mxCell>
        <mxCell id="C-vyLk0tnHw3VtMMgP7b-8" value="username str NOT NULL" style="shape=partialRectangle;overflow=hidden;connectable=0;fillColor=#dae8fc;top=0;left=0;bottom=0;right=0;align=left;spacingLeft=6;strokeColor=#6c8ebf;" parent="C-vyLk0tnHw3VtMMgP7b-6" vertex="1">
          <mxGeometry x="40" width="225" height="30" as="geometry">
            <mxRectangle width="225" height="30" as="alternateBounds" />
          </mxGeometry>
        </mxCell>
        <mxCell id="gf_K7DOhobYMyROf4His-39" value="" style="shape=partialRectangle;collapsible=0;dropTarget=0;pointerEvents=0;fillColor=none;points=[[0,0.5],[1,0.5]];portConstraint=eastwest;top=0;left=0;right=0;bottom=0;" vertex="1" parent="C-vyLk0tnHw3VtMMgP7b-2">
          <mxGeometry y="90" width="265" height="30" as="geometry" />
        </mxCell>
        <mxCell id="gf_K7DOhobYMyROf4His-40" value="" style="shape=partialRectangle;overflow=hidden;connectable=0;fillColor=none;top=0;left=0;bottom=0;right=0;labelBorderColor=none;labelBackgroundColor=none;textShadow=0;" vertex="1" parent="gf_K7DOhobYMyROf4His-39">
          <mxGeometry width="40" height="30" as="geometry">
            <mxRectangle width="40" height="30" as="alternateBounds" />
          </mxGeometry>
        </mxCell>
        <mxCell id="gf_K7DOhobYMyROf4His-41" value="email str NOT NULL" style="shape=partialRectangle;overflow=hidden;connectable=0;fillColor=#dae8fc;top=0;left=0;bottom=0;right=0;align=left;spacingLeft=6;strokeColor=#6c8ebf;" vertex="1" parent="gf_K7DOhobYMyROf4His-39">
          <mxGeometry x="40" width="225" height="30" as="geometry">
            <mxRectangle width="225" height="30" as="alternateBounds" />
          </mxGeometry>
        </mxCell>
        <mxCell id="gf_K7DOhobYMyROf4His-77" value="" style="shape=partialRectangle;collapsible=0;dropTarget=0;pointerEvents=0;fillColor=none;points=[[0,0.5],[1,0.5]];portConstraint=eastwest;top=0;left=0;right=0;bottom=0;" vertex="1" parent="C-vyLk0tnHw3VtMMgP7b-2">
          <mxGeometry y="120" width="265" height="30" as="geometry" />
        </mxCell>
        <mxCell id="gf_K7DOhobYMyROf4His-78" value="" style="shape=partialRectangle;overflow=hidden;connectable=0;fillColor=none;top=0;left=0;bottom=0;right=0;labelBorderColor=none;labelBackgroundColor=none;textShadow=0;" vertex="1" parent="gf_K7DOhobYMyROf4His-77">
          <mxGeometry width="40" height="30" as="geometry">
            <mxRectangle width="40" height="30" as="alternateBounds" />
          </mxGeometry>
        </mxCell>
        <mxCell id="gf_K7DOhobYMyROf4His-79" value="password str NOT NULL" style="shape=partialRectangle;overflow=hidden;connectable=0;fillColor=#dae8fc;top=0;left=0;bottom=0;right=0;align=left;spacingLeft=6;strokeColor=#6c8ebf;" vertex="1" parent="gf_K7DOhobYMyROf4His-77">
          <mxGeometry x="40" width="225" height="30" as="geometry">
            <mxRectangle width="225" height="30" as="alternateBounds" />
          </mxGeometry>
        </mxCell>
        <mxCell id="gf_K7DOhobYMyROf4His-18" value="" style="shape=partialRectangle;collapsible=0;dropTarget=0;pointerEvents=0;fillColor=none;points=[[0,0.5],[1,0.5]];portConstraint=eastwest;top=0;left=0;right=0;bottom=0;" vertex="1" parent="C-vyLk0tnHw3VtMMgP7b-2">
          <mxGeometry y="150" width="265" height="30" as="geometry" />
        </mxCell>
        <mxCell id="gf_K7DOhobYMyROf4His-19" value="" style="shape=partialRectangle;overflow=hidden;connectable=0;fillColor=none;top=0;left=0;bottom=0;right=0;labelBorderColor=none;labelBackgroundColor=none;textShadow=0;" vertex="1" parent="gf_K7DOhobYMyROf4His-18">
          <mxGeometry width="40" height="30" as="geometry">
            <mxRectangle width="40" height="30" as="alternateBounds" />
          </mxGeometry>
        </mxCell>
        <mxCell id="gf_K7DOhobYMyROf4His-20" value="first_name str" style="shape=partialRectangle;overflow=hidden;connectable=0;fillColor=#dae8fc;top=0;left=0;bottom=0;right=0;align=left;spacingLeft=6;strokeColor=#6c8ebf;" vertex="1" parent="gf_K7DOhobYMyROf4His-18">
          <mxGeometry x="40" width="225" height="30" as="geometry">
            <mxRectangle width="225" height="30" as="alternateBounds" />
          </mxGeometry>
        </mxCell>
        <mxCell id="C-vyLk0tnHw3VtMMgP7b-9" value="" style="shape=partialRectangle;collapsible=0;dropTarget=0;pointerEvents=0;fillColor=none;points=[[0,0.5],[1,0.5]];portConstraint=eastwest;top=0;left=0;right=0;bottom=0;" parent="C-vyLk0tnHw3VtMMgP7b-2" vertex="1">
          <mxGeometry y="180" width="265" height="30" as="geometry" />
        </mxCell>
        <mxCell id="C-vyLk0tnHw3VtMMgP7b-10" value="" style="shape=partialRectangle;overflow=hidden;connectable=0;fillColor=none;top=0;left=0;bottom=0;right=0;labelBorderColor=none;labelBackgroundColor=none;textShadow=0;" parent="C-vyLk0tnHw3VtMMgP7b-9" vertex="1">
          <mxGeometry width="40" height="30" as="geometry">
            <mxRectangle width="40" height="30" as="alternateBounds" />
          </mxGeometry>
        </mxCell>
        <mxCell id="C-vyLk0tnHw3VtMMgP7b-11" value="last_name str" style="shape=partialRectangle;overflow=hidden;connectable=0;fillColor=#dae8fc;top=0;left=0;bottom=0;right=0;align=left;spacingLeft=6;strokeColor=#6c8ebf;" parent="C-vyLk0tnHw3VtMMgP7b-9" vertex="1">
          <mxGeometry x="40" width="225" height="30" as="geometry">
            <mxRectangle width="225" height="30" as="alternateBounds" />
          </mxGeometry>
        </mxCell>
        <mxCell id="gf_K7DOhobYMyROf4His-36" value="" style="shape=partialRectangle;collapsible=0;dropTarget=0;pointerEvents=0;fillColor=none;points=[[0,0.5],[1,0.5]];portConstraint=eastwest;top=0;left=0;right=0;bottom=0;" vertex="1" parent="C-vyLk0tnHw3VtMMgP7b-2">
          <mxGeometry y="210" width="265" height="30" as="geometry" />
        </mxCell>
        <mxCell id="gf_K7DOhobYMyROf4His-37" value="" style="shape=partialRectangle;overflow=hidden;connectable=0;fillColor=none;top=0;left=0;bottom=0;right=0;labelBorderColor=none;labelBackgroundColor=none;textShadow=0;" vertex="1" parent="gf_K7DOhobYMyROf4His-36">
          <mxGeometry width="40" height="30" as="geometry">
            <mxRectangle width="40" height="30" as="alternateBounds" />
          </mxGeometry>
        </mxCell>
        <mxCell id="gf_K7DOhobYMyROf4His-38" value="is_superuser bool" style="shape=partialRectangle;overflow=hidden;connectable=0;fillColor=#dae8fc;top=0;left=0;bottom=0;right=0;align=left;spacingLeft=6;strokeColor=#6c8ebf;" vertex="1" parent="gf_K7DOhobYMyROf4His-36">
          <mxGeometry x="40" width="225" height="30" as="geometry">
            <mxRectangle width="225" height="30" as="alternateBounds" />
          </mxGeometry>
        </mxCell>
        <mxCell id="gf_K7DOhobYMyROf4His-42" value="" style="shape=partialRectangle;collapsible=0;dropTarget=0;pointerEvents=0;fillColor=none;points=[[0,0.5],[1,0.5]];portConstraint=eastwest;top=0;left=0;right=0;bottom=0;" vertex="1" parent="C-vyLk0tnHw3VtMMgP7b-2">
          <mxGeometry y="240" width="265" height="30" as="geometry" />
        </mxCell>
        <mxCell id="gf_K7DOhobYMyROf4His-43" value="" style="shape=partialRectangle;overflow=hidden;connectable=0;fillColor=none;top=0;left=0;bottom=0;right=0;labelBorderColor=none;labelBackgroundColor=none;textShadow=0;" vertex="1" parent="gf_K7DOhobYMyROf4His-42">
          <mxGeometry width="40" height="30" as="geometry">
            <mxRectangle width="40" height="30" as="alternateBounds" />
          </mxGeometry>
        </mxCell>
        <mxCell id="gf_K7DOhobYMyROf4His-44" value="is_admin bool" style="shape=partialRectangle;overflow=hidden;connectable=0;fillColor=#dae8fc;top=0;left=0;bottom=0;right=0;align=left;spacingLeft=6;strokeColor=#6c8ebf;" vertex="1" parent="gf_K7DOhobYMyROf4His-42">
          <mxGeometry x="40" width="225" height="30" as="geometry">
            <mxRectangle width="225" height="30" as="alternateBounds" />
          </mxGeometry>
        </mxCell>
        <mxCell id="gf_K7DOhobYMyROf4His-71" value="" style="shape=partialRectangle;collapsible=0;dropTarget=0;pointerEvents=0;fillColor=none;points=[[0,0.5],[1,0.5]];portConstraint=eastwest;top=0;left=0;right=0;bottom=0;" vertex="1" parent="C-vyLk0tnHw3VtMMgP7b-2">
          <mxGeometry y="270" width="265" height="30" as="geometry" />
        </mxCell>
        <mxCell id="gf_K7DOhobYMyROf4His-72" value="" style="shape=partialRectangle;overflow=hidden;connectable=0;fillColor=none;top=0;left=0;bottom=0;right=0;labelBorderColor=none;labelBackgroundColor=none;textShadow=0;" vertex="1" parent="gf_K7DOhobYMyROf4His-71">
          <mxGeometry width="40" height="30" as="geometry">
            <mxRectangle width="40" height="30" as="alternateBounds" />
          </mxGeometry>
        </mxCell>
        <mxCell id="gf_K7DOhobYMyROf4His-73" value="is_staff bool" style="shape=partialRectangle;overflow=hidden;connectable=0;fillColor=#dae8fc;top=0;left=0;bottom=0;right=0;align=left;spacingLeft=6;strokeColor=#6c8ebf;" vertex="1" parent="gf_K7DOhobYMyROf4His-71">
          <mxGeometry x="40" width="225" height="30" as="geometry">
            <mxRectangle width="225" height="30" as="alternateBounds" />
          </mxGeometry>
        </mxCell>
        <mxCell id="gf_K7DOhobYMyROf4His-74" value="" style="shape=partialRectangle;collapsible=0;dropTarget=0;pointerEvents=0;fillColor=none;points=[[0,0.5],[1,0.5]];portConstraint=eastwest;top=0;left=0;right=0;bottom=0;" vertex="1" parent="C-vyLk0tnHw3VtMMgP7b-2">
          <mxGeometry y="300" width="265" height="30" as="geometry" />
        </mxCell>
        <mxCell id="gf_K7DOhobYMyROf4His-75" value="" style="shape=partialRectangle;overflow=hidden;connectable=0;fillColor=none;top=0;left=0;bottom=0;right=0;labelBorderColor=none;labelBackgroundColor=none;textShadow=0;" vertex="1" parent="gf_K7DOhobYMyROf4His-74">
          <mxGeometry width="40" height="30" as="geometry">
            <mxRectangle width="40" height="30" as="alternateBounds" />
          </mxGeometry>
        </mxCell>
        <mxCell id="gf_K7DOhobYMyROf4His-76" value="last_login date" style="shape=partialRectangle;overflow=hidden;connectable=0;fillColor=#dae8fc;top=0;left=0;bottom=0;right=0;align=left;spacingLeft=6;strokeColor=#6c8ebf;" vertex="1" parent="gf_K7DOhobYMyROf4His-74">
          <mxGeometry x="40" width="225" height="30" as="geometry">
            <mxRectangle width="225" height="30" as="alternateBounds" />
          </mxGeometry>
        </mxCell>
        <mxCell id="gf_K7DOhobYMyROf4His-12" value="" style="shape=partialRectangle;collapsible=0;dropTarget=0;pointerEvents=0;fillColor=none;points=[[0,0.5],[1,0.5]];portConstraint=eastwest;top=0;left=0;right=0;bottom=0;" vertex="1" parent="C-vyLk0tnHw3VtMMgP7b-2">
          <mxGeometry y="330" width="265" height="30" as="geometry" />
        </mxCell>
        <mxCell id="gf_K7DOhobYMyROf4His-13" value="FK" style="shape=partialRectangle;overflow=hidden;connectable=0;fillColor=none;top=0;left=0;bottom=0;right=0;" vertex="1" parent="gf_K7DOhobYMyROf4His-12">
          <mxGeometry width="40" height="30" as="geometry">
            <mxRectangle width="40" height="30" as="alternateBounds" />
          </mxGeometry>
        </mxCell>
        <mxCell id="gf_K7DOhobYMyROf4His-14" value="" style="shape=partialRectangle;overflow=hidden;connectable=0;fillColor=#dae8fc;top=0;left=0;bottom=0;right=0;align=left;spacingLeft=6;strokeColor=#6c8ebf;" vertex="1" parent="gf_K7DOhobYMyROf4His-12">
          <mxGeometry x="40" width="225" height="30" as="geometry">
            <mxRectangle width="225" height="30" as="alternateBounds" />
          </mxGeometry>
        </mxCell>
        <mxCell id="gf_K7DOhobYMyROf4His-17" value="" style="endArrow=none;html=1;rounded=0;exitX=0.002;exitY=-0.002;exitDx=0;exitDy=0;exitPerimeter=0;entryX=0.153;entryY=-0.004;entryDx=0;entryDy=0;entryPerimeter=0;" edge="1" parent="C-vyLk0tnHw3VtMMgP7b-2" source="gf_K7DOhobYMyROf4His-12" target="gf_K7DOhobYMyROf4His-12">
          <mxGeometry width="50" height="50" relative="1" as="geometry">
            <mxPoint x="20" y="140" as="sourcePoint" />
            <mxPoint x="25" y="200" as="targetPoint" />
          </mxGeometry>
        </mxCell>
        <mxCell id="gf_K7DOhobYMyROf4His-80" value="Credit_card" style="shape=table;startSize=30;container=1;collapsible=1;childLayout=tableLayout;fixedRows=1;rowLines=0;fontStyle=1;align=center;resizeLast=1;swimlaneFillColor=none;rounded=1;shadow=0;fillColor=#6a00ff;strokeColor=#3700CC;fontColor=#ffffff;" vertex="1" parent="1">
          <mxGeometry x="40" y="80" width="265" height="270" as="geometry">
            <mxRectangle x="425" y="60" width="70" height="30" as="alternateBounds" />
          </mxGeometry>
        </mxCell>
        <mxCell id="gf_K7DOhobYMyROf4His-81" value="" style="shape=partialRectangle;collapsible=0;dropTarget=0;pointerEvents=0;fillColor=#6a00ff;points=[[0,0.5],[1,0.5]];portConstraint=eastwest;top=0;left=0;right=0;bottom=1;fontColor=#ffffff;strokeColor=#3700CC;" vertex="1" parent="gf_K7DOhobYMyROf4His-80">
          <mxGeometry y="30" width="265" height="30" as="geometry" />
        </mxCell>
        <mxCell id="gf_K7DOhobYMyROf4His-82" value="PK" style="shape=partialRectangle;overflow=hidden;connectable=0;fillColor=#e1d5e7;top=0;left=0;bottom=0;right=0;fontStyle=1;strokeColor=#9673a6;" vertex="1" parent="gf_K7DOhobYMyROf4His-81">
          <mxGeometry width="40" height="30" as="geometry">
            <mxRectangle width="40" height="30" as="alternateBounds" />
          </mxGeometry>
        </mxCell>
        <mxCell id="gf_K7DOhobYMyROf4His-83" value="card_idÂ int NOT NULL " style="shape=partialRectangle;overflow=hidden;connectable=0;fillColor=#f8cecc;top=0;left=0;bottom=0;right=0;align=left;spacingLeft=6;fontStyle=5;strokeColor=#b85450;" vertex="1" parent="gf_K7DOhobYMyROf4His-81">
          <mxGeometry x="40" width="225" height="30" as="geometry">
            <mxRectangle width="225" height="30" as="alternateBounds" />
          </mxGeometry>
        </mxCell>
        <mxCell id="gf_K7DOhobYMyROf4His-84" value="" style="shape=partialRectangle;collapsible=0;dropTarget=0;pointerEvents=0;fillColor=#6a00ff;points=[[0,0.5],[1,0.5]];portConstraint=eastwest;top=0;left=0;right=0;bottom=0;fontColor=#ffffff;strokeColor=#3700CC;" vertex="1" parent="gf_K7DOhobYMyROf4His-80">
          <mxGeometry y="60" width="265" height="30" as="geometry" />
        </mxCell>
        <mxCell id="gf_K7DOhobYMyROf4His-85" value="Fields" style="shape=partialRectangle;overflow=hidden;connectable=0;fillColor=#e1d5e7;top=0;left=0;bottom=0;right=0;strokeColor=#9673a6;" vertex="1" parent="gf_K7DOhobYMyROf4His-84">
          <mxGeometry width="40" height="30" as="geometry">
            <mxRectangle width="40" height="30" as="alternateBounds" />
          </mxGeometry>
        </mxCell>
        <mxCell id="gf_K7DOhobYMyROf4His-86" value="credit_number int NOT NULL" style="shape=partialRectangle;overflow=hidden;connectable=0;fillColor=#f8cecc;top=0;left=0;bottom=0;right=0;align=left;spacingLeft=6;strokeColor=#b85450;" vertex="1" parent="gf_K7DOhobYMyROf4His-84">
          <mxGeometry x="40" width="225" height="30" as="geometry">
            <mxRectangle width="225" height="30" as="alternateBounds" />
          </mxGeometry>
        </mxCell>
        <mxCell id="gf_K7DOhobYMyROf4His-87" value="" style="shape=partialRectangle;collapsible=0;dropTarget=0;pointerEvents=0;fillColor=#6a00ff;points=[[0,0.5],[1,0.5]];portConstraint=eastwest;top=0;left=0;right=0;bottom=0;fontColor=#ffffff;strokeColor=#3700CC;" vertex="1" parent="gf_K7DOhobYMyROf4His-80">
          <mxGeometry y="90" width="265" height="30" as="geometry" />
        </mxCell>
        <mxCell id="gf_K7DOhobYMyROf4His-88" value="" style="shape=partialRectangle;overflow=hidden;connectable=0;fillColor=#e1d5e7;top=0;left=0;bottom=0;right=0;labelBorderColor=none;labelBackgroundColor=none;textShadow=0;strokeColor=#9673a6;" vertex="1" parent="gf_K7DOhobYMyROf4His-87">
          <mxGeometry width="40" height="30" as="geometry">
            <mxRectangle width="40" height="30" as="alternateBounds" />
          </mxGeometry>
        </mxCell>
        <mxCell id="gf_K7DOhobYMyROf4His-89" value="expiration_date date NOT NULL" style="shape=partialRectangle;overflow=hidden;connectable=0;fillColor=#f8cecc;top=0;left=0;bottom=0;right=0;align=left;spacingLeft=6;strokeColor=#b85450;" vertex="1" parent="gf_K7DOhobYMyROf4His-87">
          <mxGeometry x="40" width="225" height="30" as="geometry">
            <mxRectangle width="225" height="30" as="alternateBounds" />
          </mxGeometry>
        </mxCell>
        <mxCell id="gf_K7DOhobYMyROf4His-90" value="" style="shape=partialRectangle;collapsible=0;dropTarget=0;pointerEvents=0;fillColor=#6a00ff;points=[[0,0.5],[1,0.5]];portConstraint=eastwest;top=0;left=0;right=0;bottom=0;fontColor=#ffffff;strokeColor=#3700CC;" vertex="1" parent="gf_K7DOhobYMyROf4His-80">
          <mxGeometry y="120" width="265" height="30" as="geometry" />
        </mxCell>
        <mxCell id="gf_K7DOhobYMyROf4His-91" value="" style="shape=partialRectangle;overflow=hidden;connectable=0;fillColor=#e1d5e7;top=0;left=0;bottom=0;right=0;labelBorderColor=none;labelBackgroundColor=none;textShadow=0;strokeColor=#9673a6;" vertex="1" parent="gf_K7DOhobYMyROf4His-90">
          <mxGeometry width="40" height="30" as="geometry">
            <mxRectangle width="40" height="30" as="alternateBounds" />
          </mxGeometry>
        </mxCell>
        <mxCell id="gf_K7DOhobYMyROf4His-92" value="holder_name str NOT NULL" style="shape=partialRectangle;overflow=hidden;connectable=0;fillColor=#f8cecc;top=0;left=0;bottom=0;right=0;align=left;spacingLeft=6;strokeColor=#b85450;" vertex="1" parent="gf_K7DOhobYMyROf4His-90">
          <mxGeometry x="40" width="225" height="30" as="geometry">
            <mxRectangle width="225" height="30" as="alternateBounds" />
          </mxGeometry>
        </mxCell>
        <mxCell id="gf_K7DOhobYMyROf4His-93" value="" style="shape=partialRectangle;collapsible=0;dropTarget=0;pointerEvents=0;fillColor=#6a00ff;points=[[0,0.5],[1,0.5]];portConstraint=eastwest;top=0;left=0;right=0;bottom=0;fontColor=#ffffff;strokeColor=#3700CC;" vertex="1" parent="gf_K7DOhobYMyROf4His-80">
          <mxGeometry y="150" width="265" height="30" as="geometry" />
        </mxCell>
        <mxCell id="gf_K7DOhobYMyROf4His-94" value="" style="shape=partialRectangle;overflow=hidden;connectable=0;fillColor=#e1d5e7;top=0;left=0;bottom=0;right=0;labelBorderColor=none;labelBackgroundColor=none;textShadow=0;strokeColor=#9673a6;" vertex="1" parent="gf_K7DOhobYMyROf4His-93">
          <mxGeometry width="40" height="30" as="geometry">
            <mxRectangle width="40" height="30" as="alternateBounds" />
          </mxGeometry>
        </mxCell>
        <mxCell id="gf_K7DOhobYMyROf4His-95" value="ccv int" style="shape=partialRectangle;overflow=hidden;connectable=0;fillColor=#f8cecc;top=0;left=0;bottom=0;right=0;align=left;spacingLeft=6;strokeColor=#b85450;" vertex="1" parent="gf_K7DOhobYMyROf4His-93">
          <mxGeometry x="40" width="225" height="30" as="geometry">
            <mxRectangle width="225" height="30" as="alternateBounds" />
          </mxGeometry>
        </mxCell>
        <mxCell id="gf_K7DOhobYMyROf4His-96" value="" style="shape=partialRectangle;collapsible=0;dropTarget=0;pointerEvents=0;fillColor=#6a00ff;points=[[0,0.5],[1,0.5]];portConstraint=eastwest;top=0;left=0;right=0;bottom=0;fontColor=#ffffff;strokeColor=#3700CC;" vertex="1" parent="gf_K7DOhobYMyROf4His-80">
          <mxGeometry y="180" width="265" height="30" as="geometry" />
        </mxCell>
        <mxCell id="gf_K7DOhobYMyROf4His-97" value="" style="shape=partialRectangle;overflow=hidden;connectable=0;fillColor=#e1d5e7;top=0;left=0;bottom=0;right=0;labelBorderColor=none;labelBackgroundColor=none;textShadow=0;strokeColor=#9673a6;" vertex="1" parent="gf_K7DOhobYMyROf4His-96">
          <mxGeometry width="40" height="30" as="geometry">
            <mxRectangle width="40" height="30" as="alternateBounds" />
          </mxGeometry>
        </mxCell>
        <mxCell id="gf_K7DOhobYMyROf4His-98" value="balance (simulated) MoneyField" style="shape=partialRectangle;overflow=hidden;connectable=0;fillColor=#f8cecc;top=0;left=0;bottom=0;right=0;align=left;spacingLeft=6;strokeColor=#b85450;" vertex="1" parent="gf_K7DOhobYMyROf4His-96">
          <mxGeometry x="40" width="225" height="30" as="geometry">
            <mxRectangle width="225" height="30" as="alternateBounds" />
          </mxGeometry>
        </mxCell>
        <mxCell id="gf_K7DOhobYMyROf4His-99" value="" style="shape=partialRectangle;collapsible=0;dropTarget=0;pointerEvents=0;fillColor=#6a00ff;points=[[0,0.5],[1,0.5]];portConstraint=eastwest;top=0;left=0;right=0;bottom=0;fontColor=#ffffff;strokeColor=#3700CC;" vertex="1" parent="gf_K7DOhobYMyROf4His-80">
          <mxGeometry y="210" width="265" height="30" as="geometry" />
        </mxCell>
        <mxCell id="gf_K7DOhobYMyROf4His-100" value="" style="shape=partialRectangle;overflow=hidden;connectable=0;fillColor=#e1d5e7;top=0;left=0;bottom=0;right=0;labelBorderColor=none;labelBackgroundColor=none;textShadow=0;strokeColor=#9673a6;" vertex="1" parent="gf_K7DOhobYMyROf4His-99">
          <mxGeometry width="40" height="30" as="geometry">
            <mxRectangle width="40" height="30" as="alternateBounds" />
          </mxGeometry>
        </mxCell>
        <mxCell id="gf_K7DOhobYMyROf4His-101" value="type str" style="shape=partialRectangle;overflow=hidden;connectable=0;fillColor=#f8cecc;top=0;left=0;bottom=0;right=0;align=left;spacingLeft=6;strokeColor=#b85450;" vertex="1" parent="gf_K7DOhobYMyROf4His-99">
          <mxGeometry x="40" width="225" height="30" as="geometry">
            <mxRectangle width="225" height="30" as="alternateBounds" />
          </mxGeometry>
        </mxCell>
        <mxCell id="gf_K7DOhobYMyROf4His-111" value="" style="shape=partialRectangle;collapsible=0;dropTarget=0;pointerEvents=0;fillColor=#6a00ff;points=[[0,0.5],[1,0.5]];portConstraint=eastwest;top=0;left=0;right=0;bottom=0;fontColor=#ffffff;strokeColor=#3700CC;" vertex="1" parent="gf_K7DOhobYMyROf4His-80">
          <mxGeometry y="240" width="265" height="30" as="geometry" />
        </mxCell>
        <mxCell id="gf_K7DOhobYMyROf4His-112" value="FK" style="shape=partialRectangle;overflow=hidden;connectable=0;fillColor=#e1d5e7;top=0;left=0;bottom=0;right=0;strokeColor=#9673a6;" vertex="1" parent="gf_K7DOhobYMyROf4His-111">
          <mxGeometry width="40" height="30" as="geometry">
            <mxRectangle width="40" height="30" as="alternateBounds" />
          </mxGeometry>
        </mxCell>
        <mxCell id="gf_K7DOhobYMyROf4His-113" value="user_id int NOT NULL" style="shape=partialRectangle;overflow=hidden;connectable=0;fillColor=#f8cecc;top=0;left=0;bottom=0;right=0;align=left;spacingLeft=6;strokeColor=#b85450;" vertex="1" parent="gf_K7DOhobYMyROf4His-111">
          <mxGeometry x="40" width="225" height="30" as="geometry">
            <mxRectangle width="225" height="30" as="alternateBounds" />
          </mxGeometry>
        </mxCell>
        <mxCell id="gf_K7DOhobYMyROf4His-114" value="" style="endArrow=none;html=1;rounded=0;exitX=0.002;exitY=-0.002;exitDx=0;exitDy=0;exitPerimeter=0;entryX=0.153;entryY=-0.004;entryDx=0;entryDy=0;entryPerimeter=0;fillColor=#e1d5e7;strokeColor=#9673a6;" edge="1" parent="gf_K7DOhobYMyROf4His-80" source="gf_K7DOhobYMyROf4His-111" target="gf_K7DOhobYMyROf4His-111">
          <mxGeometry width="50" height="50" relative="1" as="geometry">
            <mxPoint x="20" y="140" as="sourcePoint" />
            <mxPoint x="25" y="200" as="targetPoint" />
          </mxGeometry>
        </mxCell>
        <mxCell id="gf_K7DOhobYMyROf4His-117" style="edgeStyle=entityRelationEdgeStyle;rounded=0;orthogonalLoop=1;jettySize=auto;html=1;entryX=0;entryY=0.5;entryDx=0;entryDy=0;startArrow=ERone;startFill=0;endArrow=ERone;endFill=0;" edge="1" parent="1" source="gf_K7DOhobYMyROf4His-81" target="C-vyLk0tnHw3VtMMgP7b-9">
          <mxGeometry relative="1" as="geometry" />
        </mxCell>
        <mxCell id="gf_K7DOhobYMyROf4His-118" value="points_wallet" style="shape=table;startSize=20;container=1;collapsible=1;childLayout=tableLayout;fixedRows=1;rowLines=0;fontStyle=1;align=center;resizeLast=1;swimlaneFillColor=none;rounded=1;shadow=0;fillColor=#6a00ff;strokeColor=#3700CC;arcSize=16;fontColor=#ffffff;" vertex="1" parent="1">
          <mxGeometry x="40" y="360" width="265" height="140" as="geometry">
            <mxRectangle x="425" y="60" width="70" height="30" as="alternateBounds" />
          </mxGeometry>
        </mxCell>
        <mxCell id="gf_K7DOhobYMyROf4His-119" value="" style="shape=partialRectangle;collapsible=0;dropTarget=0;pointerEvents=0;fillColor=#6a00ff;points=[[0,0.5],[1,0.5]];portConstraint=eastwest;top=0;left=0;right=0;bottom=1;fontColor=#ffffff;strokeColor=#3700CC;" vertex="1" parent="gf_K7DOhobYMyROf4His-118">
          <mxGeometry y="20" width="265" height="30" as="geometry" />
        </mxCell>
        <mxCell id="gf_K7DOhobYMyROf4His-120" value="PK" style="shape=partialRectangle;overflow=hidden;connectable=0;fillColor=#e1d5e7;top=0;left=0;bottom=0;right=0;fontStyle=1;strokeColor=#9673a6;" vertex="1" parent="gf_K7DOhobYMyROf4His-119">
          <mxGeometry width="40" height="30" as="geometry">
            <mxRectangle width="40" height="30" as="alternateBounds" />
          </mxGeometry>
        </mxCell>
        <mxCell id="gf_K7DOhobYMyROf4His-121" value="wallet_idÂ int NOT NULL " style="shape=partialRectangle;overflow=hidden;connectable=0;fillColor=#f8cecc;top=0;left=0;bottom=0;right=0;align=left;spacingLeft=6;fontStyle=5;strokeColor=#b85450;" vertex="1" parent="gf_K7DOhobYMyROf4His-119">
          <mxGeometry x="40" width="225" height="30" as="geometry">
            <mxRectangle width="225" height="30" as="alternateBounds" />
          </mxGeometry>
        </mxCell>
        <mxCell id="gf_K7DOhobYMyROf4His-122" value="" style="shape=partialRectangle;collapsible=0;dropTarget=0;pointerEvents=0;fillColor=#6a00ff;points=[[0,0.5],[1,0.5]];portConstraint=eastwest;top=0;left=0;right=0;bottom=0;fontColor=#ffffff;strokeColor=#3700CC;" vertex="1" parent="gf_K7DOhobYMyROf4His-118">
          <mxGeometry y="50" width="265" height="30" as="geometry" />
        </mxCell>
        <mxCell id="gf_K7DOhobYMyROf4His-123" value="Fields" style="shape=partialRectangle;overflow=hidden;connectable=0;fillColor=#e1d5e7;top=0;left=0;bottom=0;right=0;strokeColor=#9673a6;" vertex="1" parent="gf_K7DOhobYMyROf4His-122">
          <mxGeometry width="40" height="30" as="geometry">
            <mxRectangle width="40" height="30" as="alternateBounds" />
          </mxGeometry>
        </mxCell>
        <mxCell id="gf_K7DOhobYMyROf4His-124" value="num_points int NOT NULL" style="shape=partialRectangle;overflow=hidden;connectable=0;fillColor=#f8cecc;top=0;left=0;bottom=0;right=0;align=left;spacingLeft=6;strokeColor=#b85450;" vertex="1" parent="gf_K7DOhobYMyROf4His-122">
          <mxGeometry x="40" width="225" height="30" as="geometry">
            <mxRectangle width="225" height="30" as="alternateBounds" />
          </mxGeometry>
        </mxCell>
        <mxCell id="gf_K7DOhobYMyROf4His-125" value="" style="shape=partialRectangle;collapsible=0;dropTarget=0;pointerEvents=0;fillColor=#6a00ff;points=[[0,0.5],[1,0.5]];portConstraint=eastwest;top=0;left=0;right=0;bottom=0;fontColor=#ffffff;strokeColor=#3700CC;" vertex="1" parent="gf_K7DOhobYMyROf4His-118">
          <mxGeometry y="80" width="265" height="30" as="geometry" />
        </mxCell>
        <mxCell id="gf_K7DOhobYMyROf4His-126" value="" style="shape=partialRectangle;overflow=hidden;connectable=0;fillColor=#e1d5e7;top=0;left=0;bottom=0;right=0;labelBorderColor=none;labelBackgroundColor=none;textShadow=0;strokeColor=#9673a6;" vertex="1" parent="gf_K7DOhobYMyROf4His-125">
          <mxGeometry width="40" height="30" as="geometry">
            <mxRectangle width="40" height="30" as="alternateBounds" />
          </mxGeometry>
        </mxCell>
        <mxCell id="gf_K7DOhobYMyROf4His-127" value="expiration_date date NOT NULL" style="shape=partialRectangle;overflow=hidden;connectable=0;fillColor=#f8cecc;top=0;left=0;bottom=0;right=0;align=left;spacingLeft=6;strokeColor=#b85450;" vertex="1" parent="gf_K7DOhobYMyROf4His-125">
          <mxGeometry x="40" width="225" height="30" as="geometry">
            <mxRectangle width="225" height="30" as="alternateBounds" />
          </mxGeometry>
        </mxCell>
        <mxCell id="gf_K7DOhobYMyROf4His-140" value="" style="shape=partialRectangle;collapsible=0;dropTarget=0;pointerEvents=0;fillColor=#6a00ff;points=[[0,0.5],[1,0.5]];portConstraint=eastwest;top=0;left=0;right=0;bottom=0;fontColor=#ffffff;strokeColor=#3700CC;" vertex="1" parent="gf_K7DOhobYMyROf4His-118">
          <mxGeometry y="110" width="265" height="30" as="geometry" />
        </mxCell>
        <mxCell id="gf_K7DOhobYMyROf4His-141" value="FK" style="shape=partialRectangle;overflow=hidden;connectable=0;fillColor=#e1d5e7;top=0;left=0;bottom=0;right=0;strokeColor=#9673a6;" vertex="1" parent="gf_K7DOhobYMyROf4His-140">
          <mxGeometry width="40" height="30" as="geometry">
            <mxRectangle width="40" height="30" as="alternateBounds" />
          </mxGeometry>
        </mxCell>
        <mxCell id="gf_K7DOhobYMyROf4His-142" value="user_id int NOT NULL" style="shape=partialRectangle;overflow=hidden;connectable=0;fillColor=#f8cecc;top=0;left=0;bottom=0;right=0;align=left;spacingLeft=6;strokeColor=#b85450;" vertex="1" parent="gf_K7DOhobYMyROf4His-140">
          <mxGeometry x="40" width="225" height="30" as="geometry">
            <mxRectangle width="225" height="30" as="alternateBounds" />
          </mxGeometry>
        </mxCell>
        <mxCell id="gf_K7DOhobYMyROf4His-143" value="" style="endArrow=none;html=1;rounded=0;exitX=0.002;exitY=-0.002;exitDx=0;exitDy=0;exitPerimeter=0;entryX=0.153;entryY=-0.004;entryDx=0;entryDy=0;entryPerimeter=0;fillColor=#e1d5e7;strokeColor=#9673a6;" edge="1" parent="gf_K7DOhobYMyROf4His-118" source="gf_K7DOhobYMyROf4His-140" target="gf_K7DOhobYMyROf4His-140">
          <mxGeometry width="50" height="50" relative="1" as="geometry">
            <mxPoint x="20" y="140" as="sourcePoint" />
            <mxPoint x="25" y="200" as="targetPoint" />
          </mxGeometry>
        </mxCell>
        <mxCell id="gf_K7DOhobYMyROf4His-144" style="edgeStyle=entityRelationEdgeStyle;rounded=0;orthogonalLoop=1;jettySize=auto;html=1;elbow=vertical;startArrow=ERone;startFill=0;endArrow=ERone;endFill=0;exitX=1.01;exitY=-0.159;exitDx=0;exitDy=0;exitPerimeter=0;entryX=0;entryY=0.5;entryDx=0;entryDy=0;" edge="1" parent="1" source="gf_K7DOhobYMyROf4His-119" target="C-vyLk0tnHw3VtMMgP7b-9">
          <mxGeometry relative="1" as="geometry">
            <mxPoint x="420" y="100" as="targetPoint" />
            <Array as="points">
              <mxPoint x="420" y="260" />
            </Array>
          </mxGeometry>
        </mxCell>
        <mxCell id="gf_K7DOhobYMyROf4His-145" value="Permissions" style="whiteSpace=wrap;html=1;fillColor=#dae8fc;strokeColor=#6c8ebf;startSize=30;fontStyle=1;swimlaneFillColor=none;rounded=1;shadow=0;" vertex="1" parent="1">
          <mxGeometry x="842.5" y="40" width="120" height="60" as="geometry" />
        </mxCell>
        <mxCell id="gf_K7DOhobYMyROf4His-183" value="Profiles" style="shape=table;startSize=30;container=1;collapsible=1;childLayout=tableLayout;fixedRows=1;rowLines=0;fontStyle=1;align=center;resizeLast=1;swimlaneFillColor=none;rounded=1;shadow=0;fillColor=#bac8d3;strokeColor=#23445d;" vertex="1" parent="1">
          <mxGeometry x="810" y="220" width="265" height="210" as="geometry">
            <mxRectangle x="425" y="60" width="70" height="30" as="alternateBounds" />
          </mxGeometry>
        </mxCell>
        <mxCell id="gf_K7DOhobYMyROf4His-184" value="" style="shape=partialRectangle;collapsible=0;dropTarget=0;pointerEvents=0;fillColor=#bac8d3;points=[[0,0.5],[1,0.5]];portConstraint=eastwest;top=0;left=0;right=0;bottom=1;strokeColor=#23445d;" vertex="1" parent="gf_K7DOhobYMyROf4His-183">
          <mxGeometry y="30" width="265" height="30" as="geometry" />
        </mxCell>
        <mxCell id="gf_K7DOhobYMyROf4His-185" value="PK" style="shape=partialRectangle;overflow=hidden;connectable=0;fillColor=#bac8d3;top=0;left=0;bottom=0;right=0;fontStyle=1;strokeColor=#23445d;" vertex="1" parent="gf_K7DOhobYMyROf4His-184">
          <mxGeometry width="40" height="30" as="geometry">
            <mxRectangle width="40" height="30" as="alternateBounds" />
          </mxGeometry>
        </mxCell>
        <mxCell id="gf_K7DOhobYMyROf4His-186" value="profile_idÂ int NOT NULL " style="shape=partialRectangle;overflow=hidden;connectable=0;fillColor=#bac8d3;top=0;left=0;bottom=0;right=0;align=left;spacingLeft=6;fontStyle=5;strokeColor=#23445d;" vertex="1" parent="gf_K7DOhobYMyROf4His-184">
          <mxGeometry x="40" width="225" height="30" as="geometry">
            <mxRectangle width="225" height="30" as="alternateBounds" />
          </mxGeometry>
        </mxCell>
        <mxCell id="gf_K7DOhobYMyROf4His-187" value="" style="shape=partialRectangle;collapsible=0;dropTarget=0;pointerEvents=0;fillColor=#bac8d3;points=[[0,0.5],[1,0.5]];portConstraint=eastwest;top=0;left=0;right=0;bottom=0;strokeColor=#23445d;" vertex="1" parent="gf_K7DOhobYMyROf4His-183">
          <mxGeometry y="60" width="265" height="30" as="geometry" />
        </mxCell>
        <mxCell id="gf_K7DOhobYMyROf4His-188" value="Fields" style="shape=partialRectangle;overflow=hidden;connectable=0;fillColor=#bac8d3;top=0;left=0;bottom=0;right=0;strokeColor=#23445d;" vertex="1" parent="gf_K7DOhobYMyROf4His-187">
          <mxGeometry width="40" height="30" as="geometry">
            <mxRectangle width="40" height="30" as="alternateBounds" />
          </mxGeometry>
        </mxCell>
        <mxCell id="gf_K7DOhobYMyROf4His-189" value="photo str" style="shape=partialRectangle;overflow=hidden;connectable=0;fillColor=#bac8d3;top=0;left=0;bottom=0;right=0;align=left;spacingLeft=6;strokeColor=#23445d;" vertex="1" parent="gf_K7DOhobYMyROf4His-187">
          <mxGeometry x="40" width="225" height="30" as="geometry">
            <mxRectangle width="225" height="30" as="alternateBounds" />
          </mxGeometry>
        </mxCell>
        <mxCell id="gf_K7DOhobYMyROf4His-190" value="" style="shape=partialRectangle;collapsible=0;dropTarget=0;pointerEvents=0;fillColor=#bac8d3;points=[[0,0.5],[1,0.5]];portConstraint=eastwest;top=0;left=0;right=0;bottom=0;strokeColor=#23445d;" vertex="1" parent="gf_K7DOhobYMyROf4His-183">
          <mxGeometry y="90" width="265" height="30" as="geometry" />
        </mxCell>
        <mxCell id="gf_K7DOhobYMyROf4His-191" value="" style="shape=partialRectangle;overflow=hidden;connectable=0;fillColor=#bac8d3;top=0;left=0;bottom=0;right=0;labelBorderColor=none;labelBackgroundColor=none;textShadow=0;strokeColor=#23445d;" vertex="1" parent="gf_K7DOhobYMyROf4His-190">
          <mxGeometry width="40" height="30" as="geometry">
            <mxRectangle width="40" height="30" as="alternateBounds" />
          </mxGeometry>
        </mxCell>
        <mxCell id="gf_K7DOhobYMyROf4His-192" value="birthdate date" style="shape=partialRectangle;overflow=hidden;connectable=0;fillColor=#bac8d3;top=0;left=0;bottom=0;right=0;align=left;spacingLeft=6;strokeColor=#23445d;" vertex="1" parent="gf_K7DOhobYMyROf4His-190">
          <mxGeometry x="40" width="225" height="30" as="geometry">
            <mxRectangle width="225" height="30" as="alternateBounds" />
          </mxGeometry>
        </mxCell>
        <mxCell id="gf_K7DOhobYMyROf4His-193" value="" style="shape=partialRectangle;collapsible=0;dropTarget=0;pointerEvents=0;fillColor=#bac8d3;points=[[0,0.5],[1,0.5]];portConstraint=eastwest;top=0;left=0;right=0;bottom=0;strokeColor=#23445d;" vertex="1" parent="gf_K7DOhobYMyROf4His-183">
          <mxGeometry y="120" width="265" height="30" as="geometry" />
        </mxCell>
        <mxCell id="gf_K7DOhobYMyROf4His-194" value="" style="shape=partialRectangle;overflow=hidden;connectable=0;fillColor=#bac8d3;top=0;left=0;bottom=0;right=0;labelBorderColor=none;labelBackgroundColor=none;textShadow=0;strokeColor=#23445d;" vertex="1" parent="gf_K7DOhobYMyROf4His-193">
          <mxGeometry width="40" height="30" as="geometry">
            <mxRectangle width="40" height="30" as="alternateBounds" />
          </mxGeometry>
        </mxCell>
        <mxCell id="gf_K7DOhobYMyROf4His-195" value="martial_status bool" style="shape=partialRectangle;overflow=hidden;connectable=0;fillColor=#bac8d3;top=0;left=0;bottom=0;right=0;align=left;spacingLeft=6;strokeColor=#23445d;" vertex="1" parent="gf_K7DOhobYMyROf4His-193">
          <mxGeometry x="40" width="225" height="30" as="geometry">
            <mxRectangle width="225" height="30" as="alternateBounds" />
          </mxGeometry>
        </mxCell>
        <mxCell id="gf_K7DOhobYMyROf4His-196" value="" style="shape=partialRectangle;collapsible=0;dropTarget=0;pointerEvents=0;fillColor=#bac8d3;points=[[0,0.5],[1,0.5]];portConstraint=eastwest;top=0;left=0;right=0;bottom=0;strokeColor=#23445d;" vertex="1" parent="gf_K7DOhobYMyROf4His-183">
          <mxGeometry y="150" width="265" height="30" as="geometry" />
        </mxCell>
        <mxCell id="gf_K7DOhobYMyROf4His-197" value="" style="shape=partialRectangle;overflow=hidden;connectable=0;fillColor=#bac8d3;top=0;left=0;bottom=0;right=0;labelBorderColor=none;labelBackgroundColor=none;textShadow=0;strokeColor=#23445d;" vertex="1" parent="gf_K7DOhobYMyROf4His-196">
          <mxGeometry width="40" height="30" as="geometry">
            <mxRectangle width="40" height="30" as="alternateBounds" />
          </mxGeometry>
        </mxCell>
        <mxCell id="gf_K7DOhobYMyROf4His-198" value="num_kids intÂ " style="shape=partialRectangle;overflow=hidden;connectable=0;fillColor=#bac8d3;top=0;left=0;bottom=0;right=0;align=left;spacingLeft=6;strokeColor=#23445d;" vertex="1" parent="gf_K7DOhobYMyROf4His-196">
          <mxGeometry x="40" width="225" height="30" as="geometry">
            <mxRectangle width="225" height="30" as="alternateBounds" />
          </mxGeometry>
        </mxCell>
        <mxCell id="gf_K7DOhobYMyROf4His-214" value="" style="shape=partialRectangle;collapsible=0;dropTarget=0;pointerEvents=0;fillColor=#bac8d3;points=[[0,0.5],[1,0.5]];portConstraint=eastwest;top=0;left=0;right=0;bottom=0;strokeColor=#23445d;" vertex="1" parent="gf_K7DOhobYMyROf4His-183">
          <mxGeometry y="180" width="265" height="30" as="geometry" />
        </mxCell>
        <mxCell id="gf_K7DOhobYMyROf4His-215" value="FK" style="shape=partialRectangle;overflow=hidden;connectable=0;fillColor=#bac8d3;top=0;left=0;bottom=0;right=0;strokeColor=#23445d;" vertex="1" parent="gf_K7DOhobYMyROf4His-214">
          <mxGeometry width="40" height="30" as="geometry">
            <mxRectangle width="40" height="30" as="alternateBounds" />
          </mxGeometry>
        </mxCell>
        <mxCell id="gf_K7DOhobYMyROf4His-216" value="user_id" style="shape=partialRectangle;overflow=hidden;connectable=0;fillColor=#bac8d3;top=0;left=0;bottom=0;right=0;align=left;spacingLeft=6;strokeColor=#23445d;" vertex="1" parent="gf_K7DOhobYMyROf4His-214">
          <mxGeometry x="40" width="225" height="30" as="geometry">
            <mxRectangle width="225" height="30" as="alternateBounds" />
          </mxGeometry>
        </mxCell>
        <mxCell id="gf_K7DOhobYMyROf4His-217" value="" style="endArrow=none;html=1;rounded=0;exitX=0.002;exitY=-0.002;exitDx=0;exitDy=0;exitPerimeter=0;entryX=0.153;entryY=-0.004;entryDx=0;entryDy=0;entryPerimeter=0;fillColor=#bac8d3;strokeColor=#23445d;" edge="1" parent="gf_K7DOhobYMyROf4His-183" source="gf_K7DOhobYMyROf4His-214" target="gf_K7DOhobYMyROf4His-214">
          <mxGeometry width="50" height="50" relative="1" as="geometry">
            <mxPoint x="20" y="140" as="sourcePoint" />
            <mxPoint x="25" y="200" as="targetPoint" />
          </mxGeometry>
        </mxCell>
        <mxCell id="gf_K7DOhobYMyROf4His-277" value="" style="edgeStyle=orthogonalEdgeStyle;rounded=0;orthogonalLoop=1;jettySize=auto;html=1;fillColor=#ffe6cc;strokeColor=#d79b00;" edge="1" parent="1" source="gf_K7DOhobYMyROf4His-220" target="gf_K7DOhobYMyROf4His-260">
          <mxGeometry relative="1" as="geometry" />
        </mxCell>
        <mxCell id="gf_K7DOhobYMyROf4His-220" value="reservationÂ " style="shape=table;startSize=30;container=1;collapsible=1;childLayout=tableLayout;fixedRows=1;rowLines=0;fontStyle=1;align=center;resizeLast=1;swimlaneFillColor=none;rounded=1;shadow=0;fillColor=#ffe6cc;strokeColor=#d79b00;" vertex="1" parent="1">
          <mxGeometry x="500" y="1060" width="310" height="210" as="geometry">
            <mxRectangle x="425" y="60" width="70" height="30" as="alternateBounds" />
          </mxGeometry>
        </mxCell>
        <mxCell id="gf_K7DOhobYMyROf4His-221" value="" style="shape=partialRectangle;collapsible=0;dropTarget=0;pointerEvents=0;fillColor=#ffe6cc;points=[[0,0.5],[1,0.5]];portConstraint=eastwest;top=0;left=0;right=0;bottom=1;strokeColor=#d79b00;" vertex="1" parent="gf_K7DOhobYMyROf4His-220">
          <mxGeometry y="30" width="310" height="30" as="geometry" />
        </mxCell>
        <mxCell id="gf_K7DOhobYMyROf4His-222" value="PK" style="shape=partialRectangle;overflow=hidden;connectable=0;fillColor=#ffe6cc;top=0;left=0;bottom=0;right=0;fontStyle=1;strokeColor=#d79b00;" vertex="1" parent="gf_K7DOhobYMyROf4His-221">
          <mxGeometry width="40" height="30" as="geometry">
            <mxRectangle width="40" height="30" as="alternateBounds" />
          </mxGeometry>
        </mxCell>
        <mxCell id="gf_K7DOhobYMyROf4His-223" value="reservation_idÂ int NOT NULL " style="shape=partialRectangle;overflow=hidden;connectable=0;fillColor=#ffe6cc;top=0;left=0;bottom=0;right=0;align=left;spacingLeft=6;fontStyle=5;strokeColor=#d79b00;" vertex="1" parent="gf_K7DOhobYMyROf4His-221">
          <mxGeometry x="40" width="270" height="30" as="geometry">
            <mxRectangle width="270" height="30" as="alternateBounds" />
          </mxGeometry>
        </mxCell>
        <mxCell id="gf_K7DOhobYMyROf4His-224" value="" style="shape=partialRectangle;collapsible=0;dropTarget=0;pointerEvents=0;fillColor=#ffe6cc;points=[[0,0.5],[1,0.5]];portConstraint=eastwest;top=0;left=0;right=0;bottom=0;strokeColor=#d79b00;" vertex="1" parent="gf_K7DOhobYMyROf4His-220">
          <mxGeometry y="60" width="310" height="30" as="geometry" />
        </mxCell>
        <mxCell id="gf_K7DOhobYMyROf4His-225" value="Fields" style="shape=partialRectangle;overflow=hidden;connectable=0;fillColor=#ffe6cc;top=0;left=0;bottom=0;right=0;strokeColor=#d79b00;" vertex="1" parent="gf_K7DOhobYMyROf4His-224">
          <mxGeometry width="40" height="30" as="geometry">
            <mxRectangle width="40" height="30" as="alternateBounds" />
          </mxGeometry>
        </mxCell>
        <mxCell id="gf_K7DOhobYMyROf4His-226" value="checkin_date date NOT NULL" style="shape=partialRectangle;overflow=hidden;connectable=0;fillColor=#ffe6cc;top=0;left=0;bottom=0;right=0;align=left;spacingLeft=6;strokeColor=#d79b00;" vertex="1" parent="gf_K7DOhobYMyROf4His-224">
          <mxGeometry x="40" width="270" height="30" as="geometry">
            <mxRectangle width="270" height="30" as="alternateBounds" />
          </mxGeometry>
        </mxCell>
        <mxCell id="gf_K7DOhobYMyROf4His-227" value="" style="shape=partialRectangle;collapsible=0;dropTarget=0;pointerEvents=0;fillColor=#ffe6cc;points=[[0,0.5],[1,0.5]];portConstraint=eastwest;top=0;left=0;right=0;bottom=0;strokeColor=#d79b00;" vertex="1" parent="gf_K7DOhobYMyROf4His-220">
          <mxGeometry y="90" width="310" height="30" as="geometry" />
        </mxCell>
        <mxCell id="gf_K7DOhobYMyROf4His-228" value="" style="shape=partialRectangle;overflow=hidden;connectable=0;fillColor=#ffe6cc;top=0;left=0;bottom=0;right=0;labelBorderColor=none;labelBackgroundColor=none;textShadow=0;strokeColor=#d79b00;" vertex="1" parent="gf_K7DOhobYMyROf4His-227">
          <mxGeometry width="40" height="30" as="geometry">
            <mxRectangle width="40" height="30" as="alternateBounds" />
          </mxGeometry>
        </mxCell>
        <mxCell id="gf_K7DOhobYMyROf4His-229" value="checkout_date date NOT NULL" style="shape=partialRectangle;overflow=hidden;connectable=0;fillColor=#ffe6cc;top=0;left=0;bottom=0;right=0;align=left;spacingLeft=6;strokeColor=#d79b00;" vertex="1" parent="gf_K7DOhobYMyROf4His-227">
          <mxGeometry x="40" width="270" height="30" as="geometry">
            <mxRectangle width="270" height="30" as="alternateBounds" />
          </mxGeometry>
        </mxCell>
        <mxCell id="gf_K7DOhobYMyROf4His-251" value="" style="shape=partialRectangle;collapsible=0;dropTarget=0;pointerEvents=0;fillColor=#ffe6cc;points=[[0,0.5],[1,0.5]];portConstraint=eastwest;top=0;left=0;right=0;bottom=0;strokeColor=#d79b00;" vertex="1" parent="gf_K7DOhobYMyROf4His-220">
          <mxGeometry y="120" width="310" height="30" as="geometry" />
        </mxCell>
        <mxCell id="gf_K7DOhobYMyROf4His-252" value="FK" style="shape=partialRectangle;overflow=hidden;connectable=0;fillColor=#ffe6cc;top=0;left=0;bottom=0;right=0;strokeColor=#d79b00;" vertex="1" parent="gf_K7DOhobYMyROf4His-251">
          <mxGeometry width="40" height="30" as="geometry">
            <mxRectangle width="40" height="30" as="alternateBounds" />
          </mxGeometry>
        </mxCell>
        <mxCell id="gf_K7DOhobYMyROf4His-253" value="service_id (generic key property or activity)&#xa;int NOT NULL" style="shape=partialRectangle;overflow=hidden;connectable=0;fillColor=#ffe6cc;top=0;left=0;bottom=0;right=0;align=left;spacingLeft=6;strokeColor=#d79b00;" vertex="1" parent="gf_K7DOhobYMyROf4His-251">
          <mxGeometry x="40" width="270" height="30" as="geometry">
            <mxRectangle width="270" height="30" as="alternateBounds" />
          </mxGeometry>
        </mxCell>
        <mxCell id="gf_K7DOhobYMyROf4His-254" value="" style="endArrow=none;html=1;rounded=0;exitX=0.002;exitY=-0.002;exitDx=0;exitDy=0;exitPerimeter=0;entryX=0.153;entryY=-0.004;entryDx=0;entryDy=0;entryPerimeter=0;fillColor=#ffe6cc;strokeColor=#d79b00;" edge="1" parent="gf_K7DOhobYMyROf4His-220" source="gf_K7DOhobYMyROf4His-251" target="gf_K7DOhobYMyROf4His-251">
          <mxGeometry width="50" height="50" relative="1" as="geometry">
            <mxPoint x="20" y="140" as="sourcePoint" />
            <mxPoint x="25" y="200" as="targetPoint" />
          </mxGeometry>
        </mxCell>
        <mxCell id="gf_K7DOhobYMyROf4His-256" value="" style="shape=partialRectangle;collapsible=0;dropTarget=0;pointerEvents=0;fillColor=#ffe6cc;points=[[0,0.5],[1,0.5]];portConstraint=eastwest;top=0;left=0;right=0;bottom=0;strokeColor=#d79b00;" vertex="1" parent="gf_K7DOhobYMyROf4His-220">
          <mxGeometry y="150" width="310" height="30" as="geometry" />
        </mxCell>
        <mxCell id="gf_K7DOhobYMyROf4His-257" value="" style="shape=partialRectangle;overflow=hidden;connectable=0;fillColor=#ffe6cc;top=0;left=0;bottom=0;right=0;strokeColor=#d79b00;" vertex="1" parent="gf_K7DOhobYMyROf4His-256">
          <mxGeometry width="40" height="30" as="geometry">
            <mxRectangle width="40" height="30" as="alternateBounds" />
          </mxGeometry>
        </mxCell>
        <mxCell id="gf_K7DOhobYMyROf4His-258" value="user_id int NOT NULL" style="shape=partialRectangle;overflow=hidden;connectable=0;fillColor=#ffe6cc;top=0;left=0;bottom=0;right=0;align=left;spacingLeft=6;strokeColor=#d79b00;" vertex="1" parent="gf_K7DOhobYMyROf4His-256">
          <mxGeometry x="40" width="270" height="30" as="geometry">
            <mxRectangle width="270" height="30" as="alternateBounds" />
          </mxGeometry>
        </mxCell>
        <mxCell id="gf_K7DOhobYMyROf4His-295" value="" style="shape=partialRectangle;collapsible=0;dropTarget=0;pointerEvents=0;fillColor=#ffe6cc;points=[[0,0.5],[1,0.5]];portConstraint=eastwest;top=0;left=0;right=0;bottom=0;strokeColor=#d79b00;" vertex="1" parent="gf_K7DOhobYMyROf4His-220">
          <mxGeometry y="180" width="310" height="30" as="geometry" />
        </mxCell>
        <mxCell id="gf_K7DOhobYMyROf4His-296" value="" style="shape=partialRectangle;overflow=hidden;connectable=0;fillColor=#ffe6cc;top=0;left=0;bottom=0;right=0;strokeColor=#d79b00;" vertex="1" parent="gf_K7DOhobYMyROf4His-295">
          <mxGeometry width="40" height="30" as="geometry">
            <mxRectangle width="40" height="30" as="alternateBounds" />
          </mxGeometry>
        </mxCell>
        <mxCell id="gf_K7DOhobYMyROf4His-297" value="payment_id int NOT NULL" style="shape=partialRectangle;overflow=hidden;connectable=0;fillColor=#ffe6cc;top=0;left=0;bottom=0;right=0;align=left;spacingLeft=6;strokeColor=#d79b00;" vertex="1" parent="gf_K7DOhobYMyROf4His-295">
          <mxGeometry x="40" width="270" height="30" as="geometry">
            <mxRectangle width="270" height="30" as="alternateBounds" />
          </mxGeometry>
        </mxCell>
        <mxCell id="gf_K7DOhobYMyROf4His-259" value="&lt;span data-lucid-content=&quot;{&amp;quot;t&amp;quot;:&amp;quot;note: \npreserve reservation data in case data of reserved services change (snapshot possiblity)&amp;quot;,&amp;quot;m&amp;quot;:[{&amp;quot;s&amp;quot;:0,&amp;quot;n&amp;quot;:&amp;quot;s&amp;quot;,&amp;quot;v&amp;quot;:22.22222222222222,&amp;quot;e&amp;quot;:95},{&amp;quot;s&amp;quot;:0,&amp;quot;n&amp;quot;:&amp;quot;c&amp;quot;,&amp;quot;v&amp;quot;:&amp;quot;3a414aff&amp;quot;,&amp;quot;e&amp;quot;:95},{&amp;quot;s&amp;quot;:0,&amp;quot;n&amp;quot;:&amp;quot;fsp&amp;quot;,&amp;quot;v&amp;quot;:&amp;quot;ss_presetShapeStyle1_textStyle&amp;quot;,&amp;quot;e&amp;quot;:95}]}&quot; data-lucid-type=&quot;application/vnd.lucid.text&quot;&gt;&lt;span style=&quot;color:#3a414a;font-size:16.666666666666664px;&quot;&gt;note: &lt;br&gt;&lt;/span&gt;&lt;span style=&quot;color:#3a414a;font-size:16.666666666666664px;&quot;&gt;preserve reservation data in case&lt;/span&gt;&lt;/span&gt;&lt;div&gt;&lt;span data-lucid-content=&quot;{&amp;quot;t&amp;quot;:&amp;quot;note: \npreserve reservation data in case data of reserved services change (snapshot possiblity)&amp;quot;,&amp;quot;m&amp;quot;:[{&amp;quot;s&amp;quot;:0,&amp;quot;n&amp;quot;:&amp;quot;s&amp;quot;,&amp;quot;v&amp;quot;:22.22222222222222,&amp;quot;e&amp;quot;:95},{&amp;quot;s&amp;quot;:0,&amp;quot;n&amp;quot;:&amp;quot;c&amp;quot;,&amp;quot;v&amp;quot;:&amp;quot;3a414aff&amp;quot;,&amp;quot;e&amp;quot;:95},{&amp;quot;s&amp;quot;:0,&amp;quot;n&amp;quot;:&amp;quot;fsp&amp;quot;,&amp;quot;v&amp;quot;:&amp;quot;ss_presetShapeStyle1_textStyle&amp;quot;,&amp;quot;e&amp;quot;:95}]}&quot; data-lucid-type=&quot;application/vnd.lucid.text&quot;&gt;&lt;span style=&quot;color:#3a414a;font-size:16.666666666666664px;&quot;&gt;&amp;nbsp;data of reserved services change&amp;nbsp;&lt;/span&gt;&lt;/span&gt;&lt;/div&gt;&lt;div&gt;&lt;span data-lucid-content=&quot;{&amp;quot;t&amp;quot;:&amp;quot;note: \npreserve reservation data in case data of reserved services change (snapshot possiblity)&amp;quot;,&amp;quot;m&amp;quot;:[{&amp;quot;s&amp;quot;:0,&amp;quot;n&amp;quot;:&amp;quot;s&amp;quot;,&amp;quot;v&amp;quot;:22.22222222222222,&amp;quot;e&amp;quot;:95},{&amp;quot;s&amp;quot;:0,&amp;quot;n&amp;quot;:&amp;quot;c&amp;quot;,&amp;quot;v&amp;quot;:&amp;quot;3a414aff&amp;quot;,&amp;quot;e&amp;quot;:95},{&amp;quot;s&amp;quot;:0,&amp;quot;n&amp;quot;:&amp;quot;fsp&amp;quot;,&amp;quot;v&amp;quot;:&amp;quot;ss_presetShapeStyle1_textStyle&amp;quot;,&amp;quot;e&amp;quot;:95}]}&quot; data-lucid-type=&quot;application/vnd.lucid.text&quot;&gt;&lt;span style=&quot;color:#3a414a;font-size:16.666666666666664px;&quot;&gt;(snapshot possiblity)&lt;/span&gt;&lt;/span&gt;&lt;/div&gt;" style="text;html=1;align=center;verticalAlign=middle;resizable=0;points=[];autosize=1;strokeColor=#d79b00;fillColor=#ffe6cc;" vertex="1" parent="1">
          <mxGeometry x="515" y="1280" width="280" height="90" as="geometry" />
        </mxCell>
        <mxCell id="gf_K7DOhobYMyROf4His-260" value="payment" style="shape=table;startSize=30;container=1;collapsible=1;childLayout=tableLayout;fixedRows=1;rowLines=0;fontStyle=1;align=center;resizeLast=1;swimlaneFillColor=none;rounded=1;shadow=0;fillColor=#ffe6cc;strokeColor=#d79b00;" vertex="1" parent="1">
          <mxGeometry x="112" y="1060" width="310" height="210" as="geometry">
            <mxRectangle x="425" y="60" width="70" height="30" as="alternateBounds" />
          </mxGeometry>
        </mxCell>
        <mxCell id="gf_K7DOhobYMyROf4His-261" value="" style="shape=partialRectangle;collapsible=0;dropTarget=0;pointerEvents=0;fillColor=#ffe6cc;points=[[0,0.5],[1,0.5]];portConstraint=eastwest;top=0;left=0;right=0;bottom=1;strokeColor=#d79b00;" vertex="1" parent="gf_K7DOhobYMyROf4His-260">
          <mxGeometry y="30" width="310" height="30" as="geometry" />
        </mxCell>
        <mxCell id="gf_K7DOhobYMyROf4His-262" value="PK" style="shape=partialRectangle;overflow=hidden;connectable=0;fillColor=#ffe6cc;top=0;left=0;bottom=0;right=0;fontStyle=1;strokeColor=#d79b00;" vertex="1" parent="gf_K7DOhobYMyROf4His-261">
          <mxGeometry width="40" height="30" as="geometry">
            <mxRectangle width="40" height="30" as="alternateBounds" />
          </mxGeometry>
        </mxCell>
        <mxCell id="gf_K7DOhobYMyROf4His-263" value="reservation_idÂ int NOT NULL " style="shape=partialRectangle;overflow=hidden;connectable=0;fillColor=#ffe6cc;top=0;left=0;bottom=0;right=0;align=left;spacingLeft=6;fontStyle=5;strokeColor=#d79b00;" vertex="1" parent="gf_K7DOhobYMyROf4His-261">
          <mxGeometry x="40" width="270" height="30" as="geometry">
            <mxRectangle width="270" height="30" as="alternateBounds" />
          </mxGeometry>
        </mxCell>
        <mxCell id="gf_K7DOhobYMyROf4His-264" value="" style="shape=partialRectangle;collapsible=0;dropTarget=0;pointerEvents=0;fillColor=#ffe6cc;points=[[0,0.5],[1,0.5]];portConstraint=eastwest;top=0;left=0;right=0;bottom=0;strokeColor=#d79b00;" vertex="1" parent="gf_K7DOhobYMyROf4His-260">
          <mxGeometry y="60" width="310" height="30" as="geometry" />
        </mxCell>
        <mxCell id="gf_K7DOhobYMyROf4His-265" value="Fields" style="shape=partialRectangle;overflow=hidden;connectable=0;fillColor=#ffe6cc;top=0;left=0;bottom=0;right=0;strokeColor=#d79b00;" vertex="1" parent="gf_K7DOhobYMyROf4His-264">
          <mxGeometry width="40" height="30" as="geometry">
            <mxRectangle width="40" height="30" as="alternateBounds" />
          </mxGeometry>
        </mxCell>
        <mxCell id="gf_K7DOhobYMyROf4His-266" value="amount MoneyField NOT NULL" style="shape=partialRectangle;overflow=hidden;connectable=0;fillColor=#ffe6cc;top=0;left=0;bottom=0;right=0;align=left;spacingLeft=6;strokeColor=#d79b00;" vertex="1" parent="gf_K7DOhobYMyROf4His-264">
          <mxGeometry x="40" width="270" height="30" as="geometry">
            <mxRectangle width="270" height="30" as="alternateBounds" />
          </mxGeometry>
        </mxCell>
        <mxCell id="gf_K7DOhobYMyROf4His-298" value="" style="shape=partialRectangle;collapsible=0;dropTarget=0;pointerEvents=0;fillColor=#ffe6cc;points=[[0,0.5],[1,0.5]];portConstraint=eastwest;top=0;left=0;right=0;bottom=0;strokeColor=#d79b00;" vertex="1" parent="gf_K7DOhobYMyROf4His-260">
          <mxGeometry y="90" width="310" height="30" as="geometry" />
        </mxCell>
        <mxCell id="gf_K7DOhobYMyROf4His-299" value="" style="shape=partialRectangle;overflow=hidden;connectable=0;fillColor=#ffe6cc;top=0;left=0;bottom=0;right=0;labelBorderColor=none;labelBackgroundColor=none;textShadow=0;strokeColor=#d79b00;" vertex="1" parent="gf_K7DOhobYMyROf4His-298">
          <mxGeometry width="40" height="30" as="geometry">
            <mxRectangle width="40" height="30" as="alternateBounds" />
          </mxGeometry>
        </mxCell>
        <mxCell id="gf_K7DOhobYMyROf4His-300" value="payment_date date NOT NULL" style="shape=partialRectangle;overflow=hidden;connectable=0;fillColor=#ffe6cc;top=0;left=0;bottom=0;right=0;align=left;spacingLeft=6;strokeColor=#d79b00;" vertex="1" parent="gf_K7DOhobYMyROf4His-298">
          <mxGeometry x="40" width="270" height="30" as="geometry">
            <mxRectangle width="270" height="30" as="alternateBounds" />
          </mxGeometry>
        </mxCell>
        <mxCell id="gf_K7DOhobYMyROf4His-267" value="" style="shape=partialRectangle;collapsible=0;dropTarget=0;pointerEvents=0;fillColor=#ffe6cc;points=[[0,0.5],[1,0.5]];portConstraint=eastwest;top=0;left=0;right=0;bottom=0;strokeColor=#d79b00;" vertex="1" parent="gf_K7DOhobYMyROf4His-260">
          <mxGeometry y="120" width="310" height="30" as="geometry" />
        </mxCell>
        <mxCell id="gf_K7DOhobYMyROf4His-268" value="" style="shape=partialRectangle;overflow=hidden;connectable=0;fillColor=#ffe6cc;top=0;left=0;bottom=0;right=0;labelBorderColor=none;labelBackgroundColor=none;textShadow=0;strokeColor=#d79b00;" vertex="1" parent="gf_K7DOhobYMyROf4His-267">
          <mxGeometry width="40" height="30" as="geometry">
            <mxRectangle width="40" height="30" as="alternateBounds" />
          </mxGeometry>
        </mxCell>
        <mxCell id="gf_K7DOhobYMyROf4His-269" value="discount_rate float default:0" style="shape=partialRectangle;overflow=hidden;connectable=0;fillColor=#ffe6cc;top=0;left=0;bottom=0;right=0;align=left;spacingLeft=6;strokeColor=#d79b00;" vertex="1" parent="gf_K7DOhobYMyROf4His-267">
          <mxGeometry x="40" width="270" height="30" as="geometry">
            <mxRectangle width="270" height="30" as="alternateBounds" />
          </mxGeometry>
        </mxCell>
        <mxCell id="gf_K7DOhobYMyROf4His-270" value="" style="shape=partialRectangle;collapsible=0;dropTarget=0;pointerEvents=0;fillColor=#ffe6cc;points=[[0,0.5],[1,0.5]];portConstraint=eastwest;top=0;left=0;right=0;bottom=0;strokeColor=#d79b00;" vertex="1" parent="gf_K7DOhobYMyROf4His-260">
          <mxGeometry y="150" width="310" height="30" as="geometry" />
        </mxCell>
        <mxCell id="gf_K7DOhobYMyROf4His-271" value="FK" style="shape=partialRectangle;overflow=hidden;connectable=0;fillColor=#ffe6cc;top=0;left=0;bottom=0;right=0;strokeColor=#d79b00;" vertex="1" parent="gf_K7DOhobYMyROf4His-270">
          <mxGeometry width="40" height="30" as="geometry">
            <mxRectangle width="40" height="30" as="alternateBounds" />
          </mxGeometry>
        </mxCell>
        <mxCell id="gf_K7DOhobYMyROf4His-272" value="service_id (generic key property or activity)&#xa;int NOT NULL" style="shape=partialRectangle;overflow=hidden;connectable=0;fillColor=#ffe6cc;top=0;left=0;bottom=0;right=0;align=left;spacingLeft=6;strokeColor=#d79b00;" vertex="1" parent="gf_K7DOhobYMyROf4His-270">
          <mxGeometry x="40" width="270" height="30" as="geometry">
            <mxRectangle width="270" height="30" as="alternateBounds" />
          </mxGeometry>
        </mxCell>
        <mxCell id="gf_K7DOhobYMyROf4His-273" value="" style="endArrow=none;html=1;rounded=0;exitX=0.002;exitY=-0.002;exitDx=0;exitDy=0;exitPerimeter=0;entryX=0.153;entryY=-0.004;entryDx=0;entryDy=0;entryPerimeter=0;fillColor=#ffe6cc;strokeColor=#d79b00;" edge="1" parent="gf_K7DOhobYMyROf4His-260" source="gf_K7DOhobYMyROf4His-270" target="gf_K7DOhobYMyROf4His-270">
          <mxGeometry width="50" height="50" relative="1" as="geometry">
            <mxPoint x="20" y="140" as="sourcePoint" />
            <mxPoint x="25" y="200" as="targetPoint" />
          </mxGeometry>
        </mxCell>
        <mxCell id="gf_K7DOhobYMyROf4His-274" value="" style="shape=partialRectangle;collapsible=0;dropTarget=0;pointerEvents=0;fillColor=#ffe6cc;points=[[0,0.5],[1,0.5]];portConstraint=eastwest;top=0;left=0;right=0;bottom=0;strokeColor=#d79b00;" vertex="1" parent="gf_K7DOhobYMyROf4His-260">
          <mxGeometry y="180" width="310" height="30" as="geometry" />
        </mxCell>
        <mxCell id="gf_K7DOhobYMyROf4His-275" value="" style="shape=partialRectangle;overflow=hidden;connectable=0;fillColor=#ffe6cc;top=0;left=0;bottom=0;right=0;strokeColor=#d79b00;" vertex="1" parent="gf_K7DOhobYMyROf4His-274">
          <mxGeometry width="40" height="30" as="geometry">
            <mxRectangle width="40" height="30" as="alternateBounds" />
          </mxGeometry>
        </mxCell>
        <mxCell id="gf_K7DOhobYMyROf4His-276" value="user_id int NOT NULL" style="shape=partialRectangle;overflow=hidden;connectable=0;fillColor=#ffe6cc;top=0;left=0;bottom=0;right=0;align=left;spacingLeft=6;strokeColor=#d79b00;" vertex="1" parent="gf_K7DOhobYMyROf4His-274">
          <mxGeometry x="40" width="270" height="30" as="geometry">
            <mxRectangle width="270" height="30" as="alternateBounds" />
          </mxGeometry>
        </mxCell>
        <mxCell id="gf_K7DOhobYMyROf4His-337" value="property_review" style="shape=table;startSize=30;container=1;collapsible=1;childLayout=tableLayout;fixedRows=1;rowLines=0;fontStyle=1;align=center;resizeLast=1;swimlaneFillColor=none;rounded=1;shadow=0;fillColor=#a20025;strokeColor=#6F0000;fontColor=#ffffff;" vertex="1" parent="1">
          <mxGeometry x="1210" y="610" width="265" height="210" as="geometry">
            <mxRectangle x="425" y="60" width="70" height="30" as="alternateBounds" />
          </mxGeometry>
        </mxCell>
        <mxCell id="gf_K7DOhobYMyROf4His-338" value="" style="shape=partialRectangle;collapsible=0;dropTarget=0;pointerEvents=0;fillColor=none;points=[[0,0.5],[1,0.5]];portConstraint=eastwest;top=0;left=0;right=0;bottom=1;" vertex="1" parent="gf_K7DOhobYMyROf4His-337">
          <mxGeometry y="30" width="265" height="30" as="geometry" />
        </mxCell>
        <mxCell id="gf_K7DOhobYMyROf4His-339" value="PK" style="shape=partialRectangle;overflow=hidden;connectable=0;fillColor=none;top=0;left=0;bottom=0;right=0;fontStyle=1;" vertex="1" parent="gf_K7DOhobYMyROf4His-338">
          <mxGeometry width="40" height="30" as="geometry">
            <mxRectangle width="40" height="30" as="alternateBounds" />
          </mxGeometry>
        </mxCell>
        <mxCell id="gf_K7DOhobYMyROf4His-340" value="review_idÂ int NOT NULL " style="shape=partialRectangle;overflow=hidden;connectable=0;fillColor=#f8cecc;top=0;left=0;bottom=0;right=0;align=left;spacingLeft=6;fontStyle=5;strokeColor=#b85450;" vertex="1" parent="gf_K7DOhobYMyROf4His-338">
          <mxGeometry x="40" width="225" height="30" as="geometry">
            <mxRectangle width="225" height="30" as="alternateBounds" />
          </mxGeometry>
        </mxCell>
        <mxCell id="gf_K7DOhobYMyROf4His-341" value="" style="shape=partialRectangle;collapsible=0;dropTarget=0;pointerEvents=0;fillColor=none;points=[[0,0.5],[1,0.5]];portConstraint=eastwest;top=0;left=0;right=0;bottom=0;" vertex="1" parent="gf_K7DOhobYMyROf4His-337">
          <mxGeometry y="60" width="265" height="30" as="geometry" />
        </mxCell>
        <mxCell id="gf_K7DOhobYMyROf4His-342" value="Fields" style="shape=partialRectangle;overflow=hidden;connectable=0;fillColor=none;top=0;left=0;bottom=0;right=0;" vertex="1" parent="gf_K7DOhobYMyROf4His-341">
          <mxGeometry width="40" height="30" as="geometry">
            <mxRectangle width="40" height="30" as="alternateBounds" />
          </mxGeometry>
        </mxCell>
        <mxCell id="gf_K7DOhobYMyROf4His-343" value="text str NOT NULL" style="shape=partialRectangle;overflow=hidden;connectable=0;fillColor=#f8cecc;top=0;left=0;bottom=0;right=0;align=left;spacingLeft=6;strokeColor=#b85450;" vertex="1" parent="gf_K7DOhobYMyROf4His-341">
          <mxGeometry x="40" width="225" height="30" as="geometry">
            <mxRectangle width="225" height="30" as="alternateBounds" />
          </mxGeometry>
        </mxCell>
        <mxCell id="gf_K7DOhobYMyROf4His-344" value="" style="shape=partialRectangle;collapsible=0;dropTarget=0;pointerEvents=0;fillColor=none;points=[[0,0.5],[1,0.5]];portConstraint=eastwest;top=0;left=0;right=0;bottom=0;" vertex="1" parent="gf_K7DOhobYMyROf4His-337">
          <mxGeometry y="90" width="265" height="30" as="geometry" />
        </mxCell>
        <mxCell id="gf_K7DOhobYMyROf4His-345" value="" style="shape=partialRectangle;overflow=hidden;connectable=0;fillColor=none;top=0;left=0;bottom=0;right=0;labelBorderColor=none;labelBackgroundColor=none;textShadow=0;" vertex="1" parent="gf_K7DOhobYMyROf4His-344">
          <mxGeometry width="40" height="30" as="geometry">
            <mxRectangle width="40" height="30" as="alternateBounds" />
          </mxGeometry>
        </mxCell>
        <mxCell id="gf_K7DOhobYMyROf4His-346" value="rating int NOT NULL max 10 min 1" style="shape=partialRectangle;overflow=hidden;connectable=0;fillColor=#f8cecc;top=0;left=0;bottom=0;right=0;align=left;spacingLeft=6;strokeColor=#b85450;" vertex="1" parent="gf_K7DOhobYMyROf4His-344">
          <mxGeometry x="40" width="225" height="30" as="geometry">
            <mxRectangle width="225" height="30" as="alternateBounds" />
          </mxGeometry>
        </mxCell>
        <mxCell id="gf_K7DOhobYMyROf4His-347" value="" style="shape=partialRectangle;collapsible=0;dropTarget=0;pointerEvents=0;fillColor=none;points=[[0,0.5],[1,0.5]];portConstraint=eastwest;top=0;left=0;right=0;bottom=0;" vertex="1" parent="gf_K7DOhobYMyROf4His-337">
          <mxGeometry y="120" width="265" height="30" as="geometry" />
        </mxCell>
        <mxCell id="gf_K7DOhobYMyROf4His-348" value="" style="shape=partialRectangle;overflow=hidden;connectable=0;fillColor=none;top=0;left=0;bottom=0;right=0;labelBorderColor=none;labelBackgroundColor=none;textShadow=0;" vertex="1" parent="gf_K7DOhobYMyROf4His-347">
          <mxGeometry width="40" height="30" as="geometry">
            <mxRectangle width="40" height="30" as="alternateBounds" />
          </mxGeometry>
        </mxCell>
        <mxCell id="gf_K7DOhobYMyROf4His-349" value="created_date date NOT NULL" style="shape=partialRectangle;overflow=hidden;connectable=0;fillColor=#f8cecc;top=0;left=0;bottom=0;right=0;align=left;spacingLeft=6;strokeColor=#b85450;" vertex="1" parent="gf_K7DOhobYMyROf4His-347">
          <mxGeometry x="40" width="225" height="30" as="geometry">
            <mxRectangle width="225" height="30" as="alternateBounds" />
          </mxGeometry>
        </mxCell>
        <mxCell id="gf_K7DOhobYMyROf4His-368" value="" style="shape=partialRectangle;collapsible=0;dropTarget=0;pointerEvents=0;fillColor=none;points=[[0,0.5],[1,0.5]];portConstraint=eastwest;top=0;left=0;right=0;bottom=0;" vertex="1" parent="gf_K7DOhobYMyROf4His-337">
          <mxGeometry y="150" width="265" height="30" as="geometry" />
        </mxCell>
        <mxCell id="gf_K7DOhobYMyROf4His-369" value="FK" style="shape=partialRectangle;overflow=hidden;connectable=0;fillColor=none;top=0;left=0;bottom=0;right=0;" vertex="1" parent="gf_K7DOhobYMyROf4His-368">
          <mxGeometry width="40" height="30" as="geometry">
            <mxRectangle width="40" height="30" as="alternateBounds" />
          </mxGeometry>
        </mxCell>
        <mxCell id="gf_K7DOhobYMyROf4His-370" value="user_id int NOT_NULL" style="shape=partialRectangle;overflow=hidden;connectable=0;fillColor=#f8cecc;top=0;left=0;bottom=0;right=0;align=left;spacingLeft=6;strokeColor=#b85450;" vertex="1" parent="gf_K7DOhobYMyROf4His-368">
          <mxGeometry x="40" width="225" height="30" as="geometry">
            <mxRectangle width="225" height="30" as="alternateBounds" />
          </mxGeometry>
        </mxCell>
        <mxCell id="gf_K7DOhobYMyROf4His-371" value="" style="endArrow=none;html=1;rounded=0;exitX=0.002;exitY=-0.002;exitDx=0;exitDy=0;exitPerimeter=0;entryX=0.153;entryY=-0.004;entryDx=0;entryDy=0;entryPerimeter=0;" edge="1" parent="gf_K7DOhobYMyROf4His-337" source="gf_K7DOhobYMyROf4His-368" target="gf_K7DOhobYMyROf4His-368">
          <mxGeometry width="50" height="50" relative="1" as="geometry">
            <mxPoint x="20" y="140" as="sourcePoint" />
            <mxPoint x="25" y="200" as="targetPoint" />
          </mxGeometry>
        </mxCell>
        <mxCell id="gf_K7DOhobYMyROf4His-373" value="" style="shape=partialRectangle;collapsible=0;dropTarget=0;pointerEvents=0;fillColor=none;points=[[0,0.5],[1,0.5]];portConstraint=eastwest;top=0;left=0;right=0;bottom=0;" vertex="1" parent="gf_K7DOhobYMyROf4His-337">
          <mxGeometry y="180" width="265" height="30" as="geometry" />
        </mxCell>
        <mxCell id="gf_K7DOhobYMyROf4His-374" value="" style="shape=partialRectangle;overflow=hidden;connectable=0;fillColor=none;top=0;left=0;bottom=0;right=0;" vertex="1" parent="gf_K7DOhobYMyROf4His-373">
          <mxGeometry width="40" height="30" as="geometry">
            <mxRectangle width="40" height="30" as="alternateBounds" />
          </mxGeometry>
        </mxCell>
        <mxCell id="gf_K7DOhobYMyROf4His-375" value="property_id int NOT_NULL" style="shape=partialRectangle;overflow=hidden;connectable=0;fillColor=#f8cecc;top=0;left=0;bottom=0;right=0;align=left;spacingLeft=6;strokeColor=#b85450;" vertex="1" parent="gf_K7DOhobYMyROf4His-373">
          <mxGeometry x="40" width="225" height="30" as="geometry">
            <mxRectangle width="225" height="30" as="alternateBounds" />
          </mxGeometry>
        </mxCell>
      </root>
    </mxGraphModel>
  </diagram>
</mxfile>
